<svg xmlns="http://www.w3.org/2000/svg" xmlns:xlink="http://www.w3.org/1999/xlink" viewBox="0 0 1151.2 2000" id="thief-stealing-information"><path fill="#144B8A" d="M598.8 389.9c-2.5-11.9-8.1-20.7-17.8-24.6-58-23.3-141.4-29.1-169.9 74.3 0 0-35.5 100.7-96.5 187.9l132.8 98.1c82.1-91.7 118.4-175.6 137.2-235.3 11.4-36.5 19.5-75.3 14.2-100.4z"></path><path fill="#114077" d="M598.8 389.9c-12 1.5-23.7 4-35 7.2-24.8 7.2-90.7 12.9-108.2 98-20 97.7 14.6 155.7-28.4 215.5l20.1 14.8c82.1-91.7 118.4-175.6 137.2-235.3 11.5-36.3 19.6-75.1 14.3-100.2z"></path><path fill="#144B8A" d="M1025.1 1125.7c-8.1 63.5-102.1 100.5-153.3 91.8-141-23.9-249.2-93.1-293.9-157-44.7-63.9-35.1-89.4-29.4-150.6 4.7-50.4 4.1-80.7-27.2-176.3-6.7-20.4-14.7-43.8-24.4-71-55.2-154.6-54.4-239.3-6.5-277.4 52-41.3 78.6-32.6 160.5 17.8 0 0 129.6 73.4 188.9 105.3 22.2 12 67 32.7 87.6 55.7 3.2 3.6 6.1 7.2 8.9 11 26.8 37.2 34.1 86.4 49.6 157.8 27.3 126 47.3 329.4 39.2 392.9z"></path><path fill="#114077" d="M1025.1 1125.7c-8.1 63.5-102.1 100.5-153.3 91.8-141-23.9-249.2-93.1-293.9-157-44.7-63.9-35.1-89.4-29.4-150.6 4.7-50.4 4.1-80.7-27.2-176.3 23.7 40.6 55.7 78.6 96 90.4 199.9 58.5 166.2-186.3 166.2-186.3l152.7-62.6c26.8 37.2 34.1 86.4 49.6 157.8 27.4 125.9 47.4 329.3 39.3 392.8z"></path><path fill="#E9F0F7" d="M708.7 1775.4c0-.3 0-.5-.1-.8-.1-.8-.2-1.5-.4-2.2l-124-499.4-229.3-133.3 124 499.4c.2.7.3 1.4.4 2.2 0 .3 0 .5.1.8 0 .5.1 1 .1 1.6v2.5c0 .3-.1.7-.1 1 0 .5-.1 1-.2 1.5s-.1.9-.2 1.4l-.3 1.5c-.1.3-.1.6-.2.9l-.6 2.1c0 .1-.1.3-.1.4-.3.8-.6 1.7-.9 2.5-.1.2-.1.4-.2.5-.4.9-.7 1.7-1.2 2.6-.4.9-.9 1.7-1.4 2.6-.1.1-.1.3-.2.4-.5.8-.9 1.6-1.4 2.3-.1.2-.2.3-.3.5-.4.7-.9 1.3-1.4 1.9-.1.1-.2.3-.3.4-.6.7-1.2 1.5-1.8 2.2-.5.6-1 1.1-1.6 1.7-.2.2-.3.4-.5.5-.9.9-1.9 1.7-2.9 2.5-.2.2-.5.4-.7.6-1 .8-2 1.5-3 2L278.5 1783l229.3 133.3 181.5-104.8c1-.6 2-1.3 3-2 .2-.2.5-.4.7-.6 1-.8 1.9-1.6 2.9-2.5l.5-.5c.5-.5 1.1-1.1 1.6-1.7 0 0 0-.1.1-.1.5-.6 1.1-1.2 1.6-1.9 0-.1.1-.1.1-.2.1-.1.2-.3.3-.4l.9-1.2c.2-.2.3-.5.5-.7.1-.2.2-.3.4-.5.1-.1.2-.3.3-.4.3-.5.7-1.1 1-1.7 0-.1.1-.2.1-.3.1-.1.1-.3.2-.4.2-.3.4-.7.6-1 .3-.5.5-1 .8-1.5 0-.1 0-.1.1-.2.3-.6.5-1.2.8-1.7.1-.2.2-.5.3-.7.1-.2.1-.4.2-.5.1-.2.2-.4.2-.5.2-.6.5-1.2.7-1.9v-.1c0-.1.1-.3.1-.4.2-.5.3-1 .5-1.5.1-.2.1-.4.2-.6.1-.3.2-.6.2-.9.1-.2.1-.5.2-.7.1-.3.1-.5.1-.8.1-.5.2-.9.2-1.4 0-.2.1-.4.1-.6 0-.3 0-.6.1-.9 0-.4.1-.7.1-1.1v-2.5c-.2-.5-.2-1-.3-1.5z"></path><path fill="#98ADD4" d="M708.6 1781.3c0-.3 0-.6.1-.9 0-.4.1-.7.1-1.1v-2.5c0-.5-.1-1.1-.1-1.6 0-.3 0-.5-.1-.8-.1-.8-.2-1.5-.4-2.2l-229.3-133.3c.2.7.3 1.4.4 2.2 0 .3 0 .5.1.8 0 .5.1 1 .1 1.6v2.5c0 .3-.1.7-.1 1 0 .5-.1 1-.2 1.5s-.1.9-.2 1.4l-.3 1.5c-.1.3-.1.6-.2.9l-.6 2.1c0 .1-.1.3-.1.4-.3.8-.6 1.7-.9 2.5-.1.2-.1.4-.2.5-.4.9-.7 1.7-1.2 2.6-.4.9-.9 1.7-1.4 2.6-.1.1-.1.3-.2.4-.5.8-.9 1.6-1.4 2.3-.1.2-.2.3-.3.5-.4.7-.9 1.3-1.4 1.9-.1.1-.2.3-.3.4-.6.7-1.2 1.5-1.8 2.2-.5.6-1 1.1-1.6 1.7-.2.2-.3.4-.5.5-.9.9-1.9 1.7-2.9 2.5-.2.2-.5.4-.7.6-1 .8-2 1.5-3 2l229.3 133.3c1-.6 2-1.3 3-2 .2-.2.5-.4.7-.6 1-.8 1.9-1.6 2.9-2.5l.5-.5c.5-.5 1.1-1.1 1.6-1.7 0 0 0-.1.1-.1.5-.6 1.1-1.2 1.6-1.9 0-.1.1-.1.1-.2.1-.1.2-.3.3-.4l.9-1.2c.2-.2.3-.5.5-.7.1-.2.2-.3.4-.5.1-.1.2-.3.3-.4.3-.5.7-1.1 1-1.7 0-.1.1-.2.1-.3.1-.1.1-.3.2-.4.2-.3.4-.7.6-1 .3-.5.5-1 .8-1.5 0-.1 0-.1.1-.2.3-.6.5-1.2.8-1.7.1-.2.2-.5.3-.7.1-.2.1-.4.2-.5.1-.2.2-.4.2-.5.2-.6.5-1.2.7-1.9v-.1c0-.1.1-.3.1-.4.2-.5.3-1 .5-1.5.1-.2.1-.4.2-.6.1-.3.2-.6.2-.9.1-.2.1-.5.2-.7.1-.3.1-.5.1-.8.1-.5.2-.9.2-1.4-.2-.1-.1-.3-.1-.5z"></path><path fill="#AEC7E6" d="m507.7 1926.4-229.3-133.2-.1-10.1 229.4 133.2z"></path><path fill="#98ADD4" d="m584.3 1273-229.4-133.3 124 499.4 229.3 133.3z"></path><path fill="#C2C2C3" d="m584.3 1273-229.4-133.3 8.6-7.3 229.3 133.2z"></path><path fill="#98ADD4" d="m592.8 1265.6 124 499.4c2.1 8.6.3 20-5.2 31.1-5.4 11.1-13.6 20.4-22.4 25.5l-181.5 104.8v-10.1l181.5-104.8c6.1-3.5 11.8-10 15.5-17.7 3.7-7.7 5-15.5 3.6-21.5l-124-499.4 8.5-7.3z"></path><path fill="#E9F0F7" d="M1144.4 1153.8c0-.4 0-.7-.1-1.1 0-.4-.1-.7-.1-1.1 0-.4-.1-.7-.1-1.1 0-.4-.1-.7-.2-1.1-.1-.4-.1-.7-.2-1.1-.1-.4-.1-.8-.2-1.2l-.3-1.2-.3-1.2-.3-.9v-.1c0-.1 0-.1-.1-.2-.1-.4-.2-.8-.4-1.1-.1-.4-.3-.8-.4-1.1-.1-.4-.3-.7-.4-1.1-.1-.4-.3-.7-.4-1.1-.1-.3-.2-.5-.3-.8v-.1c0-.1-.1-.1-.1-.2-.2-.4-.3-.7-.5-1.1l-.6-1.2c-.2-.4-.4-.9-.7-1.3-.2-.5-.5-.9-.8-1.4-.1-.1-.1-.2-.2-.3-.1-.1-.1-.2-.2-.3-.5-.9-1.1-1.7-1.6-2.6-.4-.7-.9-1.3-1.4-1.9-.3-.4-.6-.9-1-1.3-.3-.4-.6-.7-.9-1.1-.3-.3-.6-.7-.8-1l-.9-.9-.1-.1-.1-.1-.7-.7-.9-.9c-.3-.3-.6-.6-1-.9-.3-.3-.6-.6-1-.8-.2-.1-.3-.3-.5-.4l-.1-.1c-.1-.1-.3-.2-.4-.3-.3-.2-.6-.5-1-.7-.3-.2-.6-.5-.9-.7l-.9-.6-.9-.6c-.1 0-.1-.1-.2-.1L67.4 507.6c-.2-.1-.5-.3-.7-.4-.3-.2-.6-.3-.9-.5-.3-.1-.6-.3-.9-.4-.3-.1-.6-.3-.9-.4l-.9-.3c-.1 0-.1 0-.2-.1h-.1c-.2-.1-.4-.1-.6-.2l-.9-.3c-.3-.1-.6-.1-.9-.2-.3-.1-.6-.1-1-.2-.2 0-.4 0-.7-.1h-1.3c-.4 0-.8 0-1.1.1-.4 0-.9.1-1.3.2-.5.1-1 .2-1.5.4-.6.2-1.2.5-1.8.8l-16.4 9.5c1-.6 2.1-1 3.2-1.2 1.2-.2 2.4-.3 3.7-.2h.1c1.3.1 2.7.4 4.1.9h.1c1.4.5 2.9 1.2 4.4 2L1106 1126.2c1.5.9 3 1.9 4.4 3l.1.1c1.4 1.1 2.7 2.4 4 3.8l.1.1c1.3 1.4 2.5 2.9 3.7 4.4 1.1 1.5 2.2 3.2 3.2 4.9.1.1.1.2.1.3 1 1.7 1.8 3.4 2.6 5.1v.1c.8 1.8 1.4 3.6 2 5.4v.1c.5 1.8 1 3.6 1.3 5.4.3 1.8.4 3.6.4 5.4l-.1 820.1c0 1.7-.2 3.3-.4 4.7v.1c-.3 1.4-.7 2.7-1.3 3.9-.4.8-.8 1.3-1.3 2-1 1.4-2.1 2.5-3.4 3.3l16.4-9.5c1.3-.8 2.4-2 3.4-3.3.1-.2.3-.2.4-.4.3-.5.6-1 .8-1.5v-.1c.2-.4.3-.8.5-1.2.1-.4.3-.8.4-1.2.1-.4.2-.7.3-1.1 0-.1.1-.3.1-.5v-.1c0-.2.1-.3.1-.5.1-.3.1-.7.2-1 0-.3.1-.7.1-1.1 0-.3 0-.7.1-1V1974.7l.1-820.1c.1-.1.1-.5.1-.8z"></path><path fill="#AEC7E6" d="m1128 1164.3-.1 820.2c-.1 13.9-9.9 19.5-22.1 12.5l-1055-609.1c-12.2-7-22-24.1-22-38V529.7c.1-14 9.9-19.6 22.1-12.6l127.8 73.8L984.4 1056l121.8 70.3c12 7 21.9 24 21.8 38z"></path><path fill="#0C3461" d="M1101.6 1164.2c0-4.5-4.8-12.8-8.7-15.1L63.1 554.6c-3.5-2-7.9.5-7.9 4.5V1350c0 4.5 4.8 12.8 8.8 15l1029.7 594.5c3.5 2 7.9-.5 7.9-4.5v-790.8z"></path><path fill="#FBC977" d="M1122.2 1397.7c9.9 24.5-1.8 41.8-20.9 30.7l-217.6-125.6c-19.1-11-30.7-41.8-20.7-54.8l109.4-140.7c4.8-6.2 12.8-6 20.8-1.4s16 13.7 20.8 25.4l108.2 266.4zm-146.9-227.1-.2 73.2c0 3.2.1 5.7.3 7.3.2 1.7.8 3.8 1.8 6.4 1 2.6 2.8 5 5.3 7.2s6 4.6 10.3 7.1c4.3 2.5 7.7 4.1 10.3 4.8 2.5.7 4.4.4 5.4-.9 1.1-1.3 1.7-2.7 1.9-4.1.2-1.4.3-3.8.3-7l.2-73.2c0-3.2-.1-5.7-.3-7.4-.2-1.7-.8-3.9-1.8-6.6-1-2.7-2.8-5.1-5.3-7.5-2.5-2.3-6-4.7-10.2-7.2-4.3-2.5-7.7-4-10.3-4.6-2.6-.6-4.4-.2-5.4 1.1-1.1 1.4-1.7 2.8-1.9 4.3-.3 1.5-.4 3.9-.4 7.1zm36.2 152.1v-3.7c0-6.3-1.3-11.7-3.9-16.1-2.6-4.4-6.8-8.3-12.6-11.7-5.8-3.4-10.1-5.3-12.9-5.8-2.8-.5-4.8.3-6.2 2.6-1.4 2.2-2 6.3-2 12.4 0 8.6 1.3 15.2 3.9 19.7 2.6 4.5 8 9.1 16.1 13.8 8.1 4.7 13.2 5.4 15.4 2.2 1.1-1.8 1.7-3.6 1.9-5.2.1-1.9.2-4.5.3-8.2z"></path><path fill="#E9F0F7" d="M1007.6 1302.9c2.6 4.4 3.9 9.8 3.9 16.1v3.7c0 3.7-.1 6.4-.3 8-.2 1.7-.8 3.4-1.9 5.2-2.2 3.2-7.3 2.5-15.4-2.2-8.1-4.7-13.5-9.3-16.1-13.8-2.6-4.5-3.9-11.1-3.9-19.7 0-6 .7-10.1 2-12.4 1.4-2.2 3.4-3.1 6.2-2.6 2.7.5 7 2.4 12.9 5.8 5.8 3.5 10 7.4 12.6 11.9zM977.1 1257.5c-1-2.6-1.6-4.7-1.8-6.4-.2-1.7-.3-4.1-.3-7.3l.2-73.2c0-3.2.1-5.6.3-7.1.2-1.5.8-2.9 1.9-4.3 1.1-1.4 2.9-1.8 5.4-1.1 2.5.6 6 2.2 10.3 4.6 4.3 2.5 7.7 4.9 10.2 7.2 2.5 2.3 4.3 4.8 5.3 7.5s1.6 4.9 1.8 6.6c.2 1.7.3 4.2.3 7.4l-.2 73.2c0 3.2-.1 5.6-.3 7-.2 1.4-.8 2.8-1.9 4.1-1.1 1.3-2.9 1.6-5.4.9-2.5-.7-6-2.3-10.3-4.8-4.3-2.5-7.7-4.8-10.3-7.1-2.4-2.2-4.2-4.6-5.2-7.2z"></path><path fill="#F89D1F" d="M1146.8 1413.2c.2-.2.4-.5.6-.7.1-.2.3-.3.4-.5.2-.3.4-.5.6-.8l.3-.6c.2-.3.3-.6.5-1l.3-.6c.2-.4.3-.8.5-1.3 0-.1.1-.3.1-.4.2-.6.3-1.2.5-1.8 0-.2.1-.3.1-.5.1-.5.2-.9.3-1.4 0-.2.1-.5.1-.7 0-.4.1-.9.1-1.3v-3c0-.5 0-.9-.1-1.4 0-.3 0-.6-.1-.9-.1-.5-.1-1.1-.2-1.6 0-.3-.1-.5-.1-.8-.1-.8-.3-1.6-.5-2.5v-.1c-.2-.7-.3-1.5-.6-2.2 0-.1-.1-.2-.1-.3 0-.1-.1-.2-.1-.3-.2-.8-.5-1.7-.8-2.5 0-.1-.1-.1-.1-.2-.3-.9-.7-1.8-1-2.7l-108.2-266.3-.9-2.1c0-.1-.1-.1-.1-.2l-.9-1.8c-.1-.2-.2-.4-.3-.7-.2-.4-.4-.9-.7-1.3-.1-.3-.3-.5-.4-.8-.2-.4-.4-.8-.6-1.1-.2-.3-.3-.5-.5-.8-.2-.2-.3-.5-.5-.7-.1-.1-.1-.2-.2-.2-.5-.7-1-1.5-1.5-2.2v-.1c-.5-.7-1-1.4-1.5-2-.2-.2-.3-.4-.5-.6-.4-.5-.8-1-1.2-1.4-.2-.2-.3-.4-.5-.6-.5-.6-1.1-1.2-1.7-1.8l-1.3-1.3c-.1-.1-.3-.2-.4-.4-.3-.3-.6-.6-1-.9-.1-.1-.3-.2-.4-.3-.4-.4-.9-.7-1.3-1.1-.4-.4-.9-.7-1.3-1-.1-.1-.3-.2-.4-.3-.3-.2-.7-.5-1-.7-.1-.1-.3-.2-.4-.3-.5-.3-.9-.6-1.4-.8l-1.8-.9c-.1 0-.1-.1-.2-.1s-.1-.1-.2-.1c-.1-.1-.3-.1-.4-.2-.2-.1-.4-.2-.7-.3-.2-.1-.3-.1-.5-.2s-.4-.2-.7-.3c-.1-.1-.3-.1-.4-.2-.2-.1-.5-.2-.7-.2-.1 0-.3-.1-.4-.1-.3-.1-.5-.1-.8-.2-.1 0-.2-.1-.3-.1-.4-.1-.7-.2-1.1-.2h-.1c-.3-.1-.6-.1-.9-.1h-2.2c-.4 0-.8 0-1.2.1h-.3c-.3 0-.5.1-.8.1-.1 0-.3.1-.4.1-.2.1-.5.1-.7.2-.1 0-.2 0-.2.1-.1 0-.1 0-.2.1-.2.1-.5.2-.7.3-.1 0-.2.1-.3.1-.3.2-.7.3-1 .5l-25.4 14.8c.3-.2.7-.4 1-.5.1-.1.2-.1.3-.1.2-.1.5-.2.7-.3.1 0 .3-.1.4-.1.2-.1.5-.1.7-.2.1 0 .3-.1.4-.1.3-.1.5-.1.8-.1h.3c.4 0 .8-.1 1.2-.1h1.2c.2 0 .4 0 .6.1h.4c.3 0 .6.1.9.1h.1c.4.1.7.1 1.1.2.1 0 .2.1.3.1.2.1.5.1.8.2.1 0 .3.1.4.1.2.1.5.1.7.2.1.1.3.1.4.2.2.1.4.2.7.3.2.1.3.1.5.2s.4.2.7.3c.1.1.3.1.4.2.1.1.3.1.4.2l1.8.9c.5.3.9.5 1.4.8.1.1.3.2.4.3.3.2.7.4 1 .7.1.1.3.2.4.3.9.6 1.8 1.4 2.7 2.1.1.1.3.2.4.3.3.3.6.6 1 .9.1.1.3.2.4.4.4.4.9.8 1.3 1.3.6.6 1.1 1.2 1.7 1.8.2.2.3.4.5.6.4.5.8.9 1.2 1.4.2.2.3.4.5.6.5.6 1 1.3 1.5 2l.1.1c.5.7 1 1.4 1.5 2.2.2.3.4.6.6 1 .2.3.3.5.5.8.2.4.4.8.7 1.1.1.3.3.5.4.8.2.4.5.9.7 1.3.1.2.2.4.3.7l.9 1.8c0 .1.1.1.1.2l.9 2.1 108.2 266.3c.4.9.7 1.8 1 2.7 0 .1.1.1.1.2.3.9.6 1.7.8 2.5 0 .1.1.2.1.3.2.8.4 1.7.6 2.5v.1c.2.8.3 1.7.5 2.5 0 .3.1.5.1.8.1.5.1 1.1.2 1.6 0 .3 0 .6.1.9 0 .5.1.9.1 1.4v3c0 .4-.1.9-.1 1.3 0 .2-.1.5-.1.7-.1.5-.2 1-.3 1.4 0 .2-.1.3-.1.5-.1.6-.3 1.2-.5 1.8 0 .1-.1.3-.1.4-.1.4-.3.9-.5 1.3l-.3.6c-.2.3-.3.7-.5 1l-.3.6c-.2.3-.4.6-.6.8-.1.2-.3.3-.4.5-.2.3-.4.5-.6.7l-.4.4c-.2.2-.5.5-.8.7-.1.1-.2.2-.4.3-.4.3-.8.6-1.3.9l25.4-14.8c.4-.3.9-.5 1.3-.9.1-.1.3-.2.4-.3.3-.2.5-.4.8-.7.1-.4.2-.6.3-.7z"></path><path fill="#5386B4" d="m707.8 1348.5-.2 90.6-48.3-27.9.2-90.6zM843.1 1349.9l-.3 100.2-48.3-27.9.3-100.2zM912.6 1479.2l-.1 23L862 1473v-23zM982.3 1530.6l-.9 258.9-50.5-29.1v-113.3l.9-145.6zM430.6 1072.7l-.1 144.6-50.6-29.2.2-144.5zM500.5 1216.5l-.2 68.4-50.5-29.2.2-68.4z"></path><path fill="#AEC7E6" d="m570.5 1301-.3 93.1-50.5-29.2.2-93.1zM640.5 1247.7l-.3 108-50.6-29.2.4-107.9zM775.8 1224.4l-.5 163-48.3-27.9.5-163zM292.8 1149.7l-.3 37.6-48.3-27.9.3-37.5z"></path><path fill="#5386B4" d="m225.4 1143.3-.3 20.8-50.5-29.2.3-20.8z"></path><path fill="#AEC7E6" d="m360.8 1071.5-.5 121.3-48.3-27.9.5-121.3z"></path><path fill="#F2A29B" d="M654 412.5s30.4 24.3 56.9 35.9c26.5 11.6 25.9 74.2-14.3 103.4-40.2 29.2-80.9 34.7-100.4 21.9-19.5-12.8-24-23.7-39.5-32.2-35.2-19.3 52-150.9 97.3-129z"></path><path fill="#FFC5B3" d="M274 191.7v202.6c0 56.6 1.4 108.9 72.1 155.6 70.7 46.7 178.9 37.3 250.1-17.5 71.2-54.8 111.5-124.1 122.2-235.1 10.7-111.1-36.1-271.6-213.7-271.6S274 111.9 274 191.7z"></path><path fill="#0C3461" d="M726.1 336.1c-9.7 58.1-42.2 105.7-64.2 132.4-19.3 23.4-56.8.5-44.3-27.2.2-.5.5-1 .7-1.6 18.3-37.4 4.3-72.8-23.1-59.2-27.4 13.7-18 55.9-18.5 70.5-.2 6.1-4.1 11.2-8.6 15.2-5.4 4.8-14 .8-14-6.4v-61.6c0-37.1-29.1-67.6-66.2-69.5-34.7-1.8-81.5-11.6-136.4-41.7C216 212.6 226.1 144.6 226.1 144.6c-.4-4.9-.6-9.4-.4-13.5 2.1-57.1 55.6-49.9 55.6-49.9 16-58 62.5-29.2 62.5-29.2S388.5 0 480.7 0C669 0 683.8 108.6 683.8 108.6c27.4 11.7 42.4 33.2 49.8 60.2 12.6 46.7 2.1 109.9-7.5 167.3z"></path><path fill="#02254D" d="M726.1 336.1c-9.7 58.1-42.2 105.7-64.2 132.4-19.3 23.4-56.8.5-44.3-27.2.2-.5.5-1 .7-1.6 18.3-37.4 4.3-72.8-23.1-59.2-27.4 13.7-18 55.9-18.5 70.5-.2 6.1-4.1 11.2-8.6 15.2-5.4 4.8-14 .8-14-6.4v-61.6c0-37.1-29.1-67.6-66.2-69.5-34.7-1.8-81.5-11.6-136.4-41.7C216 212.6 226.1 144.6 226.1 144.6c-.4-4.9-.6-9.4-.4-13.5 1.6 7.4 3.6 14.8 6.6 22.1 7.4 17.7 18.8 34.7 31.9 48.9 27 29.3 67.7 42.6 104.3 55 57.3 19.3 114 34.7 174.9 32.9 26.7-.8 39.2-17 63.1-24.4 21.7-6.7 43-3.7 64.6-14.2 17.2-8.4 28.8-18.8 39.3-35 8.6-13.4 14.9-31.5 23.2-47.5 12.6 46.6 2.1 109.8-7.5 167.2z"></path><path fill="#FF8666" d="M274 290.9s24.9 31.9 85.1 64.4c68 36.8 172.1 50.3 254.3 7.1 82.1-43.2 120.5-75.1 120.5-75.1s12.6 20.6-5.9 38.2-126.2 93.7-126.2 93.7-55.1 53.4-138.5 50.4-157.7-46.1-189-102.1c-.2 0-9.7-32.2-.3-76.6z"></path><path fill="#890000" d="M291.1 314.9c.6.4 1.3.9 1.9 1.5l10.1 10.6 17 18 10.6 11.2c3 3.2 4 7.6 2.4 9.8-1.1 1.5-3.2 1.6-5.4.6-.1-.1-.3-.2-.4-.2-.9-.5-1.7-1.2-2.5-2l-1.4-1.5c.1 1.6.2 3.3.2 4.9 0 18.3-6.8 28.9-15 24.2-7.9-4.6-14.3-22-14.5-39.2-.1-7.5 1-13.9 2.9-18.5l-8.9-9.7c-2.5-2.7-3.4-6.7-2.1-8.9 1-1.7 3-2 5.1-.8zM427.3 393.5c2.1 1.2 4.1 3.8 5.1 6.7 1.3 3.8.3 6.7-2.2 6.5l-9-.7c1.9 6.8 2.9 14.4 2.8 21.8-.3 16.9-6.8 26.9-14.7 22.4-8.2-4.7-14.9-23.2-14.8-41.4 0-1.6.1-3.2.2-4.7l-1.4-.1c-.8-.1-1.6-.4-2.5-.8-.1-.1-.3-.2-.4-.3-2.1-1.4-4.2-3.9-5.3-6.7-1.7-4.2-.6-7.3 2.4-7.1l10.7 1.1 17.1 1.7 10.1 1c.6 0 1.2.3 1.9.6zM369.9 473.6c5.4 3.1 9.8 10.7 9.8 16.9-.1 23.2-16.5 32.6-36.7 20.9-20.2-11.7-36.6-40-36.5-63.2 0-6.2 4.4-8.7 9.8-5.6l53.6 31z"></path><path fill="#FFC5B3" d="M577.4 385.5v61.3c0 8.1 8.2 11.9 15.8 9.1 22.3-8.3 36.1-29.5 40.8-51.8 8-37.6 1.4-66.7-33.5-50-4.9 2.4-23.1 13.7-23.1 31.4z"></path><path fill="#144B8A" d="M296.5 651.8c-71.6 91.1-127.6 119-136 123.5-6.2 3.3-10.6 8.8-13.4 15.5-16.3 39.7 22.6 125.3 63 106.2 47.6-22.5 145.4-71.2 231.2-164.8 2.1-2.2 4.1-4.5 6.1-6.7l-132.8-98.1c-5.8 8.3-11.8 16.5-18.1 24.4z"></path><path fill="#114077" d="M412.2 728.5c-23.6 23.9-52.1 43.3-79.3 63.5-25 18.5-47.2 36.5-76.9 46.5-24 8.1-40-3.1-51.8-24.9-4.6-8.5-16.2-24.3-25.3-29.1-7.4-4-26.2-6.2-31.8 6.4-16.3 39.7 22.6 125.3 63 106.2 47.6-22.5 145.4-71.2 231.2-164.8 2.1-2.2 4.1-4.5 6.1-6.7l-20.1-14.8c-4.3 5.8-9.2 11.7-15.1 17.7z"></path><path fill="#144B8A" d="M783.6 637.6S805.4 805 729 896.9c-56.6 68.1-81.2 96.3-175.5 121.4-38.5 10.3-18.8 154.2 34.7 142.1 101.5-22.9 201.6-62.6 282.8-161.2 81.2-98.6 137.8-302.4 61.8-428.7-41.3-68.7-154.7-30.8-149.2 67.1z"></path><path fill="#FFC5B3" d="M189.5 894.8c-4.7 3.3-14.3 7-14.3 7s-2.5 9.7-29.4 22.5-56.8 9-56.8 9c-9.9 6.8-19.8 7.7-19.8 7.7l-48.7-89.7-7.6-13.9c32.3-77.8 129.3-59.1 142.5-51.5 14.7-3.6 43.4 13.3 48.7 49.9.8 5.7 1.3 10.8 1.4 15.4 1.3 32.3-11.9 40.7-16 43.6z"></path><path fill="#F2A29B" d="M189.5 894.8c-4.7 3.3-14.3 7-14.3 7s-2.5 9.7-29.4 22.5-56.8 9-56.8 9c-9.9 6.8-19.8 7.7-19.8 7.7l-48.7-89.7 39.2-13.1s7.1-12.9 34-14.1c26.9-1.2 64.8 18.2 64.8 18.2s15.7 19.8 47.2 9c1.1 32.2-12.1 40.6-16.2 43.5z"></path><path fill="#FFC5B3" d="M94.8 809.8s-2.9 33.2-2.3 41.9-3 39.9 1.1 53.4c4.1 13.4 35.6 18.9 43.1-6.6 7.5-25.6 16.2-41.5 20.3-52.2 4.1-10.7 5.4-18.8 3.5-33.4-3.5-26.8-64.2-22.9-65.7-3.1z"></path><path fill="#F2A29B" d="M562.4 1036s-60.9-38.3-129.4-13.8c-13.7 4.9-20.4 38.8 3.1 38.5 39.8-.6 65.1 11.8 65.1 11.8s-.6 31.2 45.3 26.2c45.8-5 58.1-34.5 15.9-62.7z"></path><path fill="#175294" d="M308.2 835.4c-13.2-10.8-26.8-20.4-40.8-28.5-78.1-45.1-145.5-31.1-176.7 27.2-11.8 22-18.4 50.3-18.5 84.1-.1 37.9 8 78.4 22.4 118.1 32.5 89.5 97 174.8 171.5 217.8 4.1 2.3 8.1 4.5 12.1 6.6 101.9 51.6 182.8 1 183.1-117.8.3-107.4-65.3-235.2-153.1-307.5z" opacity=".5"></path><path fill="#FF8666" d="M273.9 855.4c-13.2-10.8-26.8-20.4-40.8-28.5C155 781.8 87.5 795.7 56.3 854c-11.8 22-18.4 50.3-18.5 84.1-.1 37.9 8 78.4 22.4 118.1 32.5 89.5 97 174.8 171.5 217.8 4.1 2.3 8.1 4.5 12.1 6.6 101.9 51.6 182.8 1 183.1-117.8.4-107.4-65.2-235.1-153-307.4z"></path><defs><path id="a" d="m370.2 1287.6 34.3-19.9c34.9-20.3 56.6-63.5 56.8-124.8.4-123.5-86.5-273.9-194-336-54.1-31.2-103.1-34.1-138.4-13.6l-34.3 19.9C130 792.7 179 795.6 233 826.8c107.5 62.1 194.3 212.5 194 336-.2 61.3-21.8 104.5-56.8 124.8z"></path></defs><clipPath id="b"><use overflow="visible" xlink:href="#a"></use></clipPath><g clip-path="url(#b)"><path fill="#D69746" d="m370.2 1287.6 34.3-19.9c34.9-20.3 56.6-63.5 56.8-124.8.4-123.5-86.5-273.9-194-336-54.1-31.2-103.1-34.1-138.4-13.6l-34.3 19.9C130 792.7 179 795.6 233 826.8c107.5 62.1 194.3 212.5 194 336-.2 61.3-21.8 104.5-56.8 124.8z"></path></g><path fill="#ED4944" d="M72.1 957.9c.3-101.6 72.4-142.6 160.8-91.6s160 175.1 159.7 276.7c-.3 101.5-72.4 142.6-160.8 91.6-88.3-51-159.9-175.1-159.7-276.7zm160.8-68.6c-77.3-44.6-140.4-8.7-140.7 80.2-.3 88.8 62.5 197.5 139.8 242.1 77.3 44.6 140.4 8.7 140.7-80.2.2-88.8-62.5-197.4-139.8-242.1z"></path><path fill="#FFA991" d="M233 826.8c-54-31.2-103-34.1-138.4-13.5l34.3-19.9c35.4-20.6 84.4-17.7 138.4 13.6 5.9 3.4 11.6 7.1 17.4 11l-34.4 19.9c-5.7-4-11.4-7.7-17.3-11.1z"></path><path fill="#FF967A" d="m250.3 837.7 34.4-19.9c49.8 33.8 94.1 86 125.9 144.5l-34.4 19.8c-31.7-58.4-76.1-110.6-125.9-144.4z"></path><path fill="#FF8666" d="M426.6 1147.4c-2.9-54.1-21.4-112.2-50.3-165.3l34.4-19.8c28.9 53.1 47.4 111.2 50.2 165.3l-34.3 19.8z"></path><path fill="#ED4944" d="M461.3 1142.9c-.2 61.3-21.8 104.5-56.8 124.8l-34.3 19.9c34.9-20.3 56.6-63.5 56.8-124.8 0-5.1-.2-10.2-.4-15.4l34.3-19.8c.2 5.2.4 10.2.4 15.3z"></path><path fill="#E9F0F7" d="M236.5 922.2c52.4 32.5 94 106.9 93.6 167-.2 30.6-11.2 52.2-28.8 62.2l-.1 30.2c0 10.7-7.2 15.8-16.5 10.9-.3-.1-.6-.3-.8-.5-6.3-3.7-11.9-10.8-14.9-18.4-.5-1.4-1.5-2.5-2.4-3-.9-.5-1.8-.5-2.3.2-3 4.1-8.6 4.9-15 1.2s-11.9-10.8-14.9-18.5c-.5-1.3-1.4-2.4-2.4-2.9-.9-.5-1.8-.6-2.4.2-3 4.1-8.6 4.9-15 1.2s-11.9-10.8-14.9-18.5c-.5-1.3-1.4-2.3-2.3-2.9-.9-.5-1.9-.6-2.4.2-3 4.1-8.6 4.8-14.9 1.2-.3-.2-.5-.3-.8-.5-9.3-5.9-16.4-19.2-16.4-29.9l.1-30.2c-17.6-30.5-28.4-64.8-28.3-95.8.2-62 44.1-87 98-55.9 1.3.9 2.6 1.7 3.8 2.5zm38.2 163.7c18.1 10.4 32.8 2.1 32.8-18.7.1-20.8-14.5-46.1-32.6-56.5-18.1-10.4-32.8-2.1-32.8 18.7-.1 20.8 14.5 46.1 32.6 56.5zm-85-49c18.1 10.4 32.8 2.1 32.8-18.7.1-20.8-14.5-46.1-32.6-56.5s-32.8-2.1-32.8 18.7c-.1 20.7 14.5 46 32.6 56.5zm46 41.7c0 6.2 4.4 13.8 9.8 16.9l2.6 1.5c5.4 3.1 7.1.1 3.8-6.7l-10-20.4c-1.4-2.9-2.7-4.6-3.7-5.2-1.4-.8-2.3.5-2.3 4.1l-.2 9.8zm-19.2.2 2.6 1.5c5.4 3.1 9.8.6 9.8-5.6v-9.8c0-3.6-.9-6-2.3-6.8-1-.6-2.3-.4-3.7.9l-10.1 8.8c-3.4 2.9-1.7 7.8 3.7 11z"></path><path fill="#0C3461" d="M226.6 1058.1c-1-.6-2.3-.4-3.7.9l-10.1 8.8c-3.4 2.9-1.7 7.9 3.7 11l2.6 1.5c5.4 3.1 9.8.6 9.8-5.6v-9.8c0-3.6-.9-6-2.3-6.8zM189.9 961.6c-18.1-10.4-32.8-2.1-32.8 18.7-.1 20.8 14.5 46.1 32.6 56.5s32.8 2.1 32.8-18.7c.1-20.7-14.5-46-32.6-56.5zM238.1 1064.7c-1.4-.8-2.3.5-2.3 4.1v9.8c0 6.2 4.4 13.8 9.8 16.9l2.6 1.5c5.4 3.1 7.1.1 3.8-6.7l-10-20.4c-1.6-2.9-2.9-4.6-3.9-5.2zM274.9 1010.7c-18.1-10.4-32.8-2.1-32.8 18.7-.1 20.8 14.5 46.1 32.6 56.5 18.1 10.4 32.8 2.1 32.8-18.7.1-20.8-14.5-46.1-32.6-56.5z"></path><path fill="#F2A29B" d="M5.1 935.5s-20.6 39.2 23.4 50c40.3 9.9 47.5-29.6 34.2-35.3-21.2-9.1-28.9-24.5-28.9-24.5l-28.7 9.8z"></path><path fill="#F2A29B" d="M5.1 911s-20.6 39.2 23.4 50c40.3 9.9 47.5-29.6 34.2-35.3-21.2-9.1-28.9-24.5-28.9-24.5L5.1 911z"></path><path fill="#F2A29B" d="M9.1 867.3s-35.2 56.5 32.6 66.1c45 6.3 45.3-32.8 30.7-38.5-23.2-9.1-31.6-24.5-31.6-24.5l-31.7-3.1z"></path><path fill="#FFC5B3" d="M12.9 836s-23 50.2 32.6 60.6c44.6 8.3 41.5-30.6 26.9-36.1-21-7.9-10.1-33.8-10.1-33.8L12.9 836z"></path><path fill="#F2A29B" d="M487.6 1165.7s-56.2-2.5-84.8-8.2c-28.6-5.8-33.1 28.1-3 43.2 30.1 15.2 68.7 16.5 68.7 16.5s16-6.3 23-24.9c6.9-18.7 1.2-25.1-3.9-26.6z"></path><path fill="#F2A29B" d="M475.1 1128.6s-54.5-4.3-83.1-10.1c-28.6-5.8-34.8 29.9-4.7 45.1 30.1 15.2 74.6 20.1 74.6 20.1s10.1-10 17-28.6c6.9-18.5 1.3-25-3.8-26.5z"></path><path fill="#F2A29B" d="M470.1 1090.3s-54.5-4.3-83.1-10.1c-28.6-5.8-34.8 29.9-4.7 45.1 30.1 15.2 74.6 20.1 74.6 20.1s10.1-10 17-28.6 1.3-25-3.8-26.5z"></path><path fill="#FFC5B3" d="M483.9 1050.2s-45.1 7.1-95.6.2c-28.9-3.9-34.8 29.9-4.7 45.1 30.1 15.2 85.1 10.3 85.1 10.3s10.1-10 17-28.6c7-18.5 5.1-30.7-1.8-27z"></path><path fill="#FFC5B3" d="M540.9 1030.2s-34.7 7.9-61.2 22.2c-22.1 10.4-30.9 54.2-30.9 54.2-7.5 24.9 1.1 37.9 1.1 37.9-12 17.7-.6 37.5-.6 37.5-3.5 18.3 2.4 31.9 11 34.1 36.6 9.6 106.8-53.8 122.8-60.8 33.8-14.9 18.5-122.9-42.2-125.1z"></path><path fill="#27639E" d="m103.5 1336.8 39.7 22.9.2-82.9-39.7-23zM174.8 1377.9l39.6 22.9.3-82.9L175 1295zM152.7 1365.1l12.6 7.3v-14.5l-12.6-7.3zM233.4 1411.7l39.7 23 .2-83-39.7-22.9zM292 1445.6l39.7 22.9.2-82.9-39.7-22.9zM350.6 1479.4l39.7 23 .3-83-39.7-22.9zM409.3 1513.3l39.7 22.9.2-82.9-39.7-22.9zM467.9 1547.1l39.7 23 .2-83-39.7-22.9zM564.8 1580.5l.2-60.3-10.1-5.9-.2 60.3-12.1-20.9-.1 16.7 17.2 29.7 17.2-9.8.1-16.8z"></path></svg>